<mxfile host="Electron" agent="Mozilla/5.0 (Windows NT 10.0; Win64; x64) AppleWebKit/537.36 (KHTML, like Gecko) draw.io/24.7.17 Chrome/128.0.6613.36 Electron/32.0.1 Safari/537.36" version="24.7.17" pages="3">
  <diagram name="Datatypes" id="0X_pPW02TSwymqmn3ZUb">
    <mxGraphModel dx="1034" dy="519" grid="1" gridSize="10" guides="1" tooltips="1" connect="1" arrows="1" fold="1" page="1" pageScale="1" pageWidth="827" pageHeight="1169" math="0" shadow="0">
      <root>
        <mxCell id="RcTGqMjXrtC9ltl5M4Rv-0" />
        <mxCell id="RcTGqMjXrtC9ltl5M4Rv-1" parent="RcTGqMjXrtC9ltl5M4Rv-0" />
        <mxCell id="RcTGqMjXrtC9ltl5M4Rv-2" value="&lt;b&gt;Datatypes&lt;/b&gt;" style="swimlane;childLayout=stackLayout;horizontal=1;startSize=30;horizontalStack=0;rounded=1;fontSize=14;fontStyle=0;strokeWidth=2;resizeParent=0;resizeLast=1;shadow=0;dashed=0;align=center;arcSize=1;whiteSpace=wrap;html=1;fillColor=none;" parent="RcTGqMjXrtC9ltl5M4Rv-1" vertex="1">
          <mxGeometry x="320" y="360" width="120" height="160" as="geometry">
            <mxRectangle x="170" y="370" width="80" height="50" as="alternateBounds" />
          </mxGeometry>
        </mxCell>
        <mxCell id="RcTGqMjXrtC9ltl5M4Rv-3" value="&lt;span style=&quot;font-size: 14px;&quot;&gt;&lt;u&gt;rowID&lt;/u&gt;&lt;/span&gt;&lt;div&gt;&lt;span style=&quot;font-size: 14px;&quot;&gt;colour&lt;/span&gt;&lt;/div&gt;&lt;div&gt;&lt;span style=&quot;font-size: 14px;&quot;&gt;score&lt;/span&gt;&lt;/div&gt;&lt;div&gt;&lt;span style=&quot;font-size: 14px;&quot;&gt;height&lt;/span&gt;&lt;/div&gt;&lt;div&gt;&lt;span style=&quot;font-size: 14px;&quot;&gt;dob&lt;/span&gt;&lt;/div&gt;&lt;div&gt;&lt;span style=&quot;font-size: 14px;&quot;&gt;start&lt;/span&gt;&lt;/div&gt;&lt;div&gt;&lt;span style=&quot;font-size: 14px;&quot;&gt;nice&lt;/span&gt;&lt;/div&gt;" style="align=left;strokeColor=none;fillColor=none;spacingLeft=4;fontSize=12;verticalAlign=top;resizable=0;rotatable=0;part=1;html=1;" parent="RcTGqMjXrtC9ltl5M4Rv-2" vertex="1">
          <mxGeometry y="30" width="120" height="130" as="geometry" />
        </mxCell>
        <mxCell id="RcTGqMjXrtC9ltl5M4Rv-4" style="edgeStyle=orthogonalEdgeStyle;rounded=0;orthogonalLoop=1;jettySize=auto;html=1;exitX=0.5;exitY=1;exitDx=0;exitDy=0;" parent="RcTGqMjXrtC9ltl5M4Rv-2" source="RcTGqMjXrtC9ltl5M4Rv-3" target="RcTGqMjXrtC9ltl5M4Rv-3" edge="1">
          <mxGeometry relative="1" as="geometry" />
        </mxCell>
      </root>
    </mxGraphModel>
  </diagram>
  <diagram name="Pupil" id="wAdeiZtUJT6jyN82lT_o">
    <mxGraphModel dx="1034" dy="519" grid="1" gridSize="10" guides="1" tooltips="1" connect="1" arrows="1" fold="1" page="1" pageScale="1" pageWidth="1169" pageHeight="827" math="0" shadow="0">
      <root>
        <mxCell id="dkvHbdE_bJwhCcvxUOfx-0" />
        <mxCell id="dkvHbdE_bJwhCcvxUOfx-1" parent="dkvHbdE_bJwhCcvxUOfx-0" />
        <mxCell id="dkvHbdE_bJwhCcvxUOfx-2" value="&lt;b&gt;Pupil&lt;/b&gt;" style="swimlane;childLayout=stackLayout;horizontal=1;startSize=30;horizontalStack=0;rounded=1;fontSize=14;fontStyle=0;strokeWidth=2;resizeParent=0;resizeLast=1;shadow=0;dashed=0;align=center;arcSize=1;whiteSpace=wrap;html=1;fillColor=none;" parent="dkvHbdE_bJwhCcvxUOfx-1" vertex="1">
          <mxGeometry x="320" y="360" width="120" height="160" as="geometry">
            <mxRectangle x="170" y="370" width="80" height="50" as="alternateBounds" />
          </mxGeometry>
        </mxCell>
        <mxCell id="dkvHbdE_bJwhCcvxUOfx-3" value="&lt;span style=&quot;font-size: 14px;&quot;&gt;&lt;u&gt;pupilID&lt;/u&gt;&lt;/span&gt;&lt;div&gt;&lt;span style=&quot;font-size: 14px;&quot;&gt;addressID&lt;/span&gt;&lt;/div&gt;&lt;div&gt;&lt;span style=&quot;font-size: 14px;&quot;&gt;firstName&lt;/span&gt;&lt;/div&gt;&lt;div&gt;&lt;span style=&quot;font-size: 14px;&quot;&gt;lastName&lt;/span&gt;&lt;/div&gt;&lt;div&gt;&lt;span style=&quot;font-size: 14px;&quot;&gt;dob&lt;/span&gt;&lt;/div&gt;&lt;div&gt;&lt;span style=&quot;font-size: 14px;&quot;&gt;age&lt;/span&gt;&lt;/div&gt;&lt;div&gt;&lt;span style=&quot;font-size: 14px;&quot;&gt;enrolled&lt;/span&gt;&lt;/div&gt;" style="align=left;strokeColor=none;fillColor=none;spacingLeft=4;fontSize=12;verticalAlign=top;resizable=0;rotatable=0;part=1;html=1;" parent="dkvHbdE_bJwhCcvxUOfx-2" vertex="1">
          <mxGeometry y="30" width="120" height="130" as="geometry" />
        </mxCell>
        <mxCell id="dkvHbdE_bJwhCcvxUOfx-4" style="edgeStyle=orthogonalEdgeStyle;rounded=0;orthogonalLoop=1;jettySize=auto;html=1;exitX=0.5;exitY=1;exitDx=0;exitDy=0;" parent="dkvHbdE_bJwhCcvxUOfx-2" source="dkvHbdE_bJwhCcvxUOfx-3" target="dkvHbdE_bJwhCcvxUOfx-3" edge="1">
          <mxGeometry relative="1" as="geometry" />
        </mxCell>
      </root>
    </mxGraphModel>
  </diagram>
  <diagram name="StaffSubject" id="Q7zGEM8cMa9GbJ4rTJJM">
    <mxGraphModel dx="662" dy="433" grid="1" gridSize="10" guides="1" tooltips="1" connect="1" arrows="1" fold="1" page="1" pageScale="1" pageWidth="1169" pageHeight="827" math="0" shadow="0">
      <root>
        <mxCell id="RcTGqMjXrtC9ltl5M4Rv-0" />
        <mxCell id="RcTGqMjXrtC9ltl5M4Rv-1" parent="RcTGqMjXrtC9ltl5M4Rv-0" />
        <mxCell id="RcTGqMjXrtC9ltl5M4Rv-2" value="&lt;b&gt;Staff&lt;/b&gt;" style="swimlane;childLayout=stackLayout;horizontal=1;startSize=30;horizontalStack=0;rounded=1;fontSize=14;fontStyle=0;strokeWidth=2;resizeParent=0;resizeLast=1;shadow=0;dashed=0;align=center;arcSize=1;whiteSpace=wrap;html=1;fillColor=none;" parent="RcTGqMjXrtC9ltl5M4Rv-1" vertex="1">
          <mxGeometry x="360" y="360" width="120" height="120" as="geometry">
            <mxRectangle x="170" y="370" width="80" height="50" as="alternateBounds" />
          </mxGeometry>
        </mxCell>
        <mxCell id="RcTGqMjXrtC9ltl5M4Rv-3" value="&lt;span style=&quot;font-size: 14px;&quot;&gt;&lt;u&gt;staffID&lt;/u&gt;&lt;/span&gt;&lt;div&gt;&lt;span style=&quot;font-size: 14px;&quot;&gt;title&lt;/span&gt;&lt;/div&gt;&lt;div&gt;&lt;span style=&quot;font-size: 14px;&quot;&gt;lastName&lt;/span&gt;&lt;/div&gt;&lt;div&gt;&lt;span style=&quot;font-size: 14px;&quot;&gt;role&lt;/span&gt;&lt;/div&gt;" style="align=left;strokeColor=none;fillColor=none;spacingLeft=4;fontSize=12;verticalAlign=top;resizable=0;rotatable=0;part=1;html=1;" parent="RcTGqMjXrtC9ltl5M4Rv-2" vertex="1">
          <mxGeometry y="30" width="120" height="90" as="geometry" />
        </mxCell>
        <mxCell id="RcTGqMjXrtC9ltl5M4Rv-4" style="edgeStyle=orthogonalEdgeStyle;rounded=0;orthogonalLoop=1;jettySize=auto;html=1;exitX=0.5;exitY=1;exitDx=0;exitDy=0;" parent="RcTGqMjXrtC9ltl5M4Rv-2" source="RcTGqMjXrtC9ltl5M4Rv-3" target="RcTGqMjXrtC9ltl5M4Rv-3" edge="1">
          <mxGeometry relative="1" as="geometry" />
        </mxCell>
        <mxCell id="RcTGqMjXrtC9ltl5M4Rv-5" value="&lt;b&gt;Teacher&lt;/b&gt;" style="swimlane;childLayout=stackLayout;horizontal=1;startSize=30;horizontalStack=0;rounded=1;fontSize=14;fontStyle=0;strokeWidth=2;resizeParent=0;resizeLast=1;shadow=0;dashed=0;align=center;arcSize=1;whiteSpace=wrap;html=1;fillColor=none;" parent="RcTGqMjXrtC9ltl5M4Rv-1" vertex="1">
          <mxGeometry x="600" y="360" width="120" height="120" as="geometry">
            <mxRectangle x="170" y="370" width="80" height="50" as="alternateBounds" />
          </mxGeometry>
        </mxCell>
        <mxCell id="RcTGqMjXrtC9ltl5M4Rv-6" value="&lt;span style=&quot;font-size: 14px;&quot;&gt;&lt;u&gt;staffID&lt;/u&gt;*&lt;/span&gt;&lt;div&gt;&lt;span style=&quot;font-size: 14px;&quot;&gt;&lt;u&gt;subjectID&lt;/u&gt;*&lt;/span&gt;&lt;/div&gt;" style="align=left;strokeColor=none;fillColor=none;spacingLeft=4;fontSize=12;verticalAlign=top;resizable=0;rotatable=0;part=1;html=1;" parent="RcTGqMjXrtC9ltl5M4Rv-5" vertex="1">
          <mxGeometry y="30" width="120" height="90" as="geometry" />
        </mxCell>
        <mxCell id="1jgJIBs9kYSq21pB2lWS-0" value="&lt;b&gt;Subject&lt;/b&gt;" style="swimlane;childLayout=stackLayout;horizontal=1;startSize=30;horizontalStack=0;rounded=1;fontSize=14;fontStyle=0;strokeWidth=2;resizeParent=0;resizeLast=1;shadow=0;dashed=0;align=center;arcSize=1;whiteSpace=wrap;html=1;fillColor=none;" vertex="1" parent="RcTGqMjXrtC9ltl5M4Rv-1">
          <mxGeometry x="840" y="360" width="120" height="120" as="geometry">
            <mxRectangle x="170" y="370" width="80" height="50" as="alternateBounds" />
          </mxGeometry>
        </mxCell>
        <mxCell id="1jgJIBs9kYSq21pB2lWS-1" value="&lt;span style=&quot;font-size: 14px;&quot;&gt;&lt;u&gt;subjectID&lt;/u&gt;&lt;/span&gt;&lt;div&gt;&lt;span style=&quot;font-size: 14px;&quot;&gt;subject&lt;/span&gt;&lt;/div&gt;" style="align=left;strokeColor=none;fillColor=none;spacingLeft=4;fontSize=12;verticalAlign=top;resizable=0;rotatable=0;part=1;html=1;" vertex="1" parent="1jgJIBs9kYSq21pB2lWS-0">
          <mxGeometry y="30" width="120" height="90" as="geometry" />
        </mxCell>
        <mxCell id="1jgJIBs9kYSq21pB2lWS-2" style="edgeStyle=orthogonalEdgeStyle;rounded=0;orthogonalLoop=1;jettySize=auto;html=1;exitX=1;exitY=0.5;exitDx=0;exitDy=0;entryX=0;entryY=0.5;entryDx=0;entryDy=0;endArrow=none;endFill=0;startArrow=ERmany;startFill=0;startSize=20;" edge="1" parent="RcTGqMjXrtC9ltl5M4Rv-1" source="RcTGqMjXrtC9ltl5M4Rv-6" target="1jgJIBs9kYSq21pB2lWS-1">
          <mxGeometry relative="1" as="geometry" />
        </mxCell>
        <mxCell id="1jgJIBs9kYSq21pB2lWS-3" style="edgeStyle=orthogonalEdgeStyle;rounded=0;orthogonalLoop=1;jettySize=auto;html=1;exitX=1;exitY=0.5;exitDx=0;exitDy=0;entryX=0;entryY=0.5;entryDx=0;entryDy=0;endArrow=ERmany;endFill=0;startSize=6;endSize=20;" edge="1" parent="RcTGqMjXrtC9ltl5M4Rv-1" source="RcTGqMjXrtC9ltl5M4Rv-3" target="RcTGqMjXrtC9ltl5M4Rv-6">
          <mxGeometry relative="1" as="geometry" />
        </mxCell>
      </root>
    </mxGraphModel>
  </diagram>
</mxfile>
